<svg id="Layer_1" data-name="Layer 1" xmlns="http://www.w3.org/2000/svg" xmlns:xlink="http://www.w3.org/1999/xlink" viewBox="0 0 1080 1080"><defs><style>.cls-1{fill:none;}.cls-2{fill:#fff;}.cls-3{clip-path:url(#clip-path);}</style><clipPath id="clip-path"><rect class="cls-1" width="1080" height="1080"/></clipPath></defs><rect class="cls-2" width="1080" height="1080"/><g class="cls-3"><path d="M713.78,446.35A173.74,173.74,0,0,1,540,620.11c-95.91,0-173.7-77.77-173.7-173.76A173.73,173.73,0,0,1,540,272.65c96,0,173.76,77.79,173.76,173.7"/><path d="M783.67,712.32,540,956,296.35,712.32a344.83,344.83,0,0,1,0-487.45c134.58-134.55,352.8-134.55,487.32,0s134.58,352.82,0,487.45M0,1080H1080V0H0Z"/></g></svg>