<?xml version="1.0" encoding="UTF-8"?>
<!-- Generated by Pixelmator Pro 3.1.1 -->
<svg width="320" height="320" viewBox="0 0 320 320" xmlns="http://www.w3.org/2000/svg" xmlns:xlink="http://www.w3.org/1999/xlink">
    <g id="Group">
        <path id="Path-copy" fill="#ffffff" stroke="none" d="M 191 187 C 190.61171 187.361053 172 195 172 195 C 172 195 166.009521 193.158356 160 195 C 155.632935 196.338318 149 196 149 196 L 137 191 L 124 184 C 104.81427 160.827728 102.693893 151.666016 104 139 C 104.497902 134.17157 104.386299 130.221252 107 123 C 107.918327 120.462799 106.476509 119.526566 110 116 C 133.526581 92.478653 139.827408 84.748932 154 85 C 163.848755 85.174454 194.954407 98.595398 197 100 C 201.406281 103.025558 204.842728 107.262817 211 118 C 214.995239 124.96698 216.110779 140.014771 216 144 C 215.862244 148.954605 211.099609 170.28772 202 176 C 199.87677 177.332855 198.612122 178.713013 198 183 C 197.591919 185.857986 195.202911 183.091858 191 187 Z M 160 284 L 221 224 L 255 180 L 264 141 L 258 105 L 243 76 L 217 53 L 184 38 L 150 36 L 116 45 L 88 65 L 67 93 L 58 127 L 56 149 L 62 171 L 75 198 L 102 225 L 160 284 Z"/>
    </g>
</svg>
