<?xml version="1.0" encoding="UTF-8"?>
<!-- Generated by Pixelmator Pro 3.1.1 -->
<svg width="1120" height="200" viewBox="0 0 1120 200" xmlns="http://www.w3.org/2000/svg" xmlns:xlink="http://www.w3.org/1999/xlink">
    <path id="Path" fill="#000000" stroke="none" d="M 18.690002 65.190002 L 94 65.190002 L 94 86.599976 L 42 86.599976 L 42 93.400024 L 82.699997 93.400024 L 82.699997 114 L 42 114 L 42 135.51001 L 18.699997 135.51001 Z"/>
    <path id="path1" fill="#000000" stroke="none" d="M 142 64.190002 C 147.617752 64.143188 153.231781 64.494141 158.799988 65.23999 C 163.430206 65.87854 167.96637 67.073853 172.309998 68.799988 C 176.113037 70.251709 179.570404 72.482788 182.459991 75.349976 C 185.221802 78.266541 187.319824 81.746155 188.609985 85.549988 C 190.16568 90.205078 190.909851 95.092896 190.809998 100 C 190.904327 104.80603 190.246368 109.59729 188.859985 114.200012 C 187.709442 117.931702 185.803253 121.386719 183.26001 124.349976 C 180.601654 127.276001 177.321228 129.568848 173.660004 131.059998 C 169.349152 132.851013 164.825073 134.07782 160.200012 134.710022 C 154.400421 135.49408 148.552124 135.861633 142.699997 135.809998 C 126.159999 135.809998 114.139999 132.809998 106.639999 126.809998 C 99.139999 120.809998 95.393331 111.440002 95.399994 98.700012 C 95.399994 86.960022 99.236664 78.276693 106.910004 72.650024 C 114.583333 67.023315 126.279999 64.203308 142 64.190002 Z M 142.899994 117.400024 C 149.973338 117.400024 155.440002 115.966675 159.299988 113.099976 C 163.159993 110.233317 165.096659 105.866659 165.109985 100 C 165.109985 94.333333 163.073324 90 159 87 C 154.926676 84 149.460012 82.516663 142.600006 82.549988 C 139.395721 82.498596 136.199463 82.885498 133.100006 83.700012 C 130.620941 84.332458 128.314682 85.511169 126.350006 87.150024 C 124.592026 88.633362 123.219559 90.520508 122.350006 92.650024 C 121.446457 94.975769 121.004883 97.455322 121.050003 99.950012 C 120.857651 104.784912 122.882965 109.443115 126.550003 112.599976 C 130.263331 115.806641 135.716665 117.406657 142.910004 117.400024 Z"/>
    <path id="path2" fill="#000000" stroke="none" d="M 240.730011 135.51001 C 230.256663 135.51001 221.519989 134.476664 214.519989 132.409973 C 207.519989 130.343323 202.679993 126.773336 200 121.700012 C 197.884399 117.247009 196.564484 112.458069 196.100006 107.549988 C 195.307831 99.090942 194.973999 90.595154 195.100006 82.099976 L 195.200012 65.290039 L 219.809998 65.290039 L 219.809998 96.700012 C 219.797821 98.487854 219.89801 100.274719 220.109985 102.049988 C 220.369354 103.833801 220.891693 105.569336 221.660004 107.200012 C 222.435028 108.99585 223.615967 110.587585 225.109985 111.849976 C 226.951447 113.28302 229.058746 114.33667 231.309998 114.950012 C 234.37851 115.842896 237.56488 116.264343 240.76001 116.200012 C 243.938812 116.266113 247.108948 115.844543 250.160004 114.950012 C 252.34668 114.352112 254.388336 113.31427 256.160004 111.900024 C 257.585144 110.619324 258.697052 109.028442 259.410004 107.25 C 260.141663 105.613159 260.630157 103.878174 260.859985 102.099976 C 261.041107 100.305847 261.124542 98.503174 261.109985 96.700012 L 261.109985 65.290039 L 285.720001 65.290039 L 285.720001 82.099976 C 285.893646 90.593445 285.59317 99.090027 284.820007 107.549988 C 284.35553 112.458069 283.035614 117.247009 280.920013 121.700012 C 279.497162 124.390808 277.458405 126.707092 274.970001 128.460022 C 272.154297 130.404968 269.020569 131.843262 265.709991 132.710022 C 261.974091 133.732422 258.161682 134.451416 254.309998 134.859985 C 249.798004 135.31665 245.264984 135.53363 240.730011 135.51001 Z"/>
    <path id="path3" fill="#000000" stroke="none" d="M 380.649994 135.51001 L 348.850006 135.51001 L 314.440002 93.200012 L 314.440002 135.51001 L 291.140015 135.51001 L 291.140015 65.290039 L 323.640015 65.290039 L 357.450012 106.900024 L 357.450012 65.290039 L 380.649994 65.290039 Z"/>
    <path id="path4" fill="#000000" stroke="none" d="M 435.369995 135.51001 L 387.059998 135.51001 L 387.059998 65.51001 L 435.059998 65.51001 C 439.105835 65.479126 443.148926 65.729736 447.159973 66.26001 C 450.839661 66.80127 454.435303 67.809326 457.859985 69.26001 C 461.243042 70.615356 464.307739 72.658447 466.859985 75.26001 C 469.511841 78.187195 471.506531 81.64801 472.710022 85.409973 C 474.315674 90.275635 475.089844 95.377075 475 100.5 C 475.074524 105.275085 474.260742 110.0224 472.599976 114.5 C 471.23407 118.24292 469.086426 121.651917 466.299988 124.5 C 463.610779 127.132996 460.501526 129.299316 457.099976 130.909973 C 453.720886 132.554932 450.140259 133.748474 446.450012 134.460022 C 442.797302 135.153442 439.087952 135.504944 435.369995 135.51001 Z M 433.77002 116.400024 C 437.0354 116.496826 440.271362 115.756714 443.169983 114.25 C 445.600708 112.990662 447.589294 111.019531 448.869995 108.599976 C 450.105042 106.117065 450.722534 103.372681 450.669983 100.599976 C 450.669983 95.800008 449.33665 91.950012 446.669983 89.049988 C 444.003316 86.150004 439.719991 84.700012 433.820007 84.700012 L 410.359985 84.700012 L 410.359985 116.400024 Z"/>
    <path id="path5" fill="#000000" stroke="none" d="M 479.070007 65.290039 L 556.590027 65.290039 L 556.590027 84.799988 L 502.380005 84.799988 L 502.380005 91 L 553.190002 91 L 553.190002 109.700012 L 502.380005 109.700012 L 502.380005 116 L 556.590027 116 L 556.590027 135.51001 L 479.070007 135.51001 Z"/>
    <path id="path6" fill="#000000" stroke="none" d="M 561.789978 65.290039 L 613.400024 65.290039 C 614.72998 65.290039 616 65.290039 617.200012 65.390015 C 618.400024 65.48999 620.080017 65.679993 622.200012 66.040039 C 624.207581 66.36731 626.182007 66.872681 628.099976 67.549988 C 630.087463 68.294495 631.983154 69.26416 633.75 70.440002 C 635.681274 71.680847 637.388733 73.239502 638.799988 75.049988 C 640.310974 77.088989 641.460999 79.372131 642.200012 81.799988 C 643.141541 84.808533 643.597229 87.947937 643.549988 91.099976 C 643.549988 102.166667 639.25 110.066671 630.650024 114.799988 L 645.049988 135.51001 L 618.150024 135.409973 L 606.150024 118.900024 L 585.090027 118.900024 L 585.090027 135.51001 L 561.789978 135.51001 Z M 611.200012 98.400024 C 617.00002 98.400024 619.900024 96.200012 619.900024 91.799988 C 619.900024 87.799988 616.866679 85.799988 610.799988 85.799988 L 585.090027 85.799988 L 585.090027 98.400024 Z"/>
    <path id="path7" fill="#000000" stroke="none" d="M 758.77002 112.200012 L 809.679993 112.200012 L 809.679993 135.51001 L 735.469971 135.51001 L 735.469971 65.290039 L 758.77002 65.290039 Z"/>
    <path id="path8" fill="#000000" stroke="none" d="M 881.200012 65.48999 L 912.700012 135.48999 L 885.700012 135.48999 L 880.390015 123.679993 L 845.690002 123.679993 L 840.390015 135.48999 L 813.580017 135.48999 L 844.98999 65.48999 Z M 854 103.5 L 872.099976 103.5 L 863 85.099976 Z"/>
    <path id="path9" fill="#000000" stroke="none" d="M 1006.719971 135.51001 L 974.910034 135.51001 L 940.51001 93.200012 L 940.51001 135.51001 L 917.199951 135.51001 L 917.199951 65.290039 L 949.709961 65.290039 L 983.51001 106.900024 L 983.51001 65.290039 L 1006.719971 65.290039 Z"/>
    <path id="path10" fill="#000000" stroke="none" d="M 1061.530029 135.51001 L 1013.219971 135.51001 L 1013.219971 65.51001 L 1061.219971 65.51001 C 1065.265869 65.47876 1069.30896 65.72937 1073.319946 66.26001 C 1076.999634 66.80127 1080.595337 67.809326 1084.02002 69.26001 C 1087.403076 70.615356 1090.467773 72.658447 1093.02002 75.26001 C 1095.675415 78.184631 1097.670532 81.64624 1098.869995 85.409973 C 1100.47168 90.279358 1101.23584 95.385071 1101.130005 100.51001 C 1101.206543 105.286133 1100.38916 110.034363 1098.719971 114.51001 C 1097.354126 118.25293 1095.206421 121.661926 1092.420044 124.51001 C 1089.730713 127.142944 1086.62146 129.309326 1083.219971 130.919983 C 1079.842041 132.567871 1076.260986 133.761536 1072.569946 134.469971 C 1068.930176 135.158081 1065.234253 135.506226 1061.530029 135.51001 Z M 1059.930054 116.400024 C 1063.195435 116.496826 1066.431396 115.756714 1069.329956 114.25 C 1071.760742 112.990662 1073.749268 111.019531 1075.030029 108.599976 C 1076.265015 106.117065 1076.882568 103.372681 1076.829956 100.599976 C 1076.829956 95.800008 1075.496623 91.950012 1072.829956 89.049988 C 1070.163289 86.150004 1065.879964 84.700012 1059.97998 84.700012 L 1036.569946 84.700012 L 1036.569946 116.400024 Z"/>
    <path id="path11" fill="#000000" stroke="none" d="M 651.47998 82.98999 L 694.52002 82.98999 L 653.950012 123 L 665.789978 135.48999 L 706.900024 95.369995 L 706.900024 135.48999 L 724.390015 135.48999 L 724.390015 65.48999 L 651.47998 65.48999 L 651.47998 82.98999 Z"/>
</svg>
